<svg width="168" height="49" viewBox="0 0 168 49" fill="none" xmlns="http://www.w3.org/2000/svg">
<path d="M150.359 0.000871699C149.623 0.000871699 148.901 0.0426701 148.196 0.123659C148.307 0.0818583 148.417 0.0409307 148.531 0.000871699C148.38 0.0470267 148.213 0.0940538 148.032 0.143692C144.075 0.634851 140.668 2.37829 138.157 5.03438C135.956 7.18624 134.11 10.3291 133.408 15.0091C131.582 27.0111 126.418 30.7958 118.843 31.3445C110.057 31.3445 103.787 25.7867 103.787 17.383C103.787 13.7106 104.976 10.5399 107.043 8.13373L119.047 20.1384H114.135V23.1724H124.244V13.1733H121.213V18.0161L109.274 6.07678C111.791 4.24016 115.042 3.20211 118.745 3.20211C120.198 3.20211 121.546 3.31358 122.802 3.57483C124.217 3.86918 125.517 4.3525 126.724 5.0814L128.527 2.51588C127.158 1.71993 125.529 1.06766 123.762 0.627012C122.157 0.226422 120.438 0 118.697 0C108.155 0 100.555 7.40831 100.555 17.383H100.557C100.557 27.4988 108.061 34.3367 118.888 34.3367C128.206 33.9866 132.49 28.5516 134.57 23.3326C136.828 29.999 142.797 34.3367 150.358 34.3367C160.094 34.3367 167.17 27.2132 167.17 17.1923C167.17 7.17144 160.047 0 150.358 0L150.359 0.000871699ZM161.366 25.8355L150.396 13.9458H155.308V10.9117H145.195V20.9108H148.229V16.068L159.334 28.1032C156.994 30.1584 153.897 31.3453 150.359 31.3453C142.571 31.3453 136.824 25.4549 136.824 17.1932C136.824 8.93142 142.476 2.99398 150.359 2.99398C158.241 2.99398 163.94 8.93142 163.94 17.1932C163.94 20.5416 163.004 23.5007 161.366 25.8355Z" fill="#FF521C"/>
<path d="M79.9883 0.00146484C70.2487 0.00146484 62.6035 7.152 62.6035 17.1372C62.6035 27.1223 69.5668 34.3355 80.664 34.3355L80.6693 34.3382C86.3411 34.3382 91.7038 32.6104 95.4023 28.6045L93.7372 25.7063C90.5308 29.3447 85.9083 31.1317 80.9157 31.1317C72.5922 31.1317 66.3821 26.0764 65.9493 18.6185H97.3103V17.0779C97.3103 7.03008 89.7278 0.00146484 79.9874 0.00146484H79.9883ZM65.8849 15.6585C66.5041 8.2005 72.7167 2.96758 79.9883 2.96758C87.2599 2.96758 93.597 8.26233 94.0891 15.6585H65.8849Z" fill="#FF521C"/>
<path d="M51.2897 20.1323C56.1752 19.5018 59.9503 15.3261 59.9503 10.2682C59.9503 4.77491 55.2869 0.322266 49.7936 0.322266H33.8057V34.3367H37.0583V20.2151H47.6617L56.5357 34.3367V34.3646L60.1976 34.3367L59.7239 33.5547L51.2888 20.1323H51.2897ZM37.0583 17.2768V3.26051H49.7944C53.6654 3.26051 56.8022 6.39817 56.8022 10.2691C56.8022 14.14 53.6645 17.2777 49.7944 17.2777H37.0583V17.2768Z" fill="#FF521C"/>
<path d="M25.0169 20.5426C25.0169 26.2797 20.3665 30.9301 14.6294 30.9301H13.5356C7.79845 30.9301 3.14812 26.2789 3.14812 20.5426V0.47998H0V20.5426C0 28.018 6.06024 34.0782 13.5356 34.0782H14.6294C22.1048 34.0782 28.165 28.018 28.165 20.5426V0.47998H25.0169V20.5426Z" fill="#FF521C"/>
<path d="M90.769 48.2109V42.6636H94.9291V43.2819H91.4509V45.0889H94.3909V45.6906H91.4509V47.5926H95.0083V48.2109H90.769Z" fill="#FF521C"/>
<path d="M86.8069 48.3133C85.2219 48.3133 83.9932 47.1569 83.9932 45.5005C83.9932 43.8833 85.2219 42.5684 86.8539 42.5684C87.9242 42.5684 88.5581 42.9245 88.9857 43.3608L88.6052 43.8677C88.2568 43.4949 87.6229 43.1867 86.8861 43.1867C85.6338 43.1867 84.6829 44.2247 84.6829 45.5005C84.6829 46.8233 85.626 47.6794 86.8069 47.6794C87.8606 47.6794 88.7245 46.8712 88.7959 45.706H86.9331V45.1121H89.4455C89.4691 45.2784 89.4769 45.4526 89.4769 45.6189C89.4769 47.1569 88.2647 48.3133 86.8069 48.3133Z" fill="#FF521C"/>
<path d="M82.3928 48.2109L78.6917 44.1458H78.6282V48.2109H77.9463V42.6636H78.2554L81.9566 46.7287H82.0123V42.6636H82.6933V48.2109H82.3928Z" fill="#FF521C"/>
<path d="M74.0415 48.3136C72.6307 48.3136 71.624 47.4663 71.624 46.0076V42.6636H72.3216V45.9841C72.3216 47.0701 73.0348 47.6875 74.0415 47.6875C75.0473 47.6875 75.7684 47.0779 75.7684 45.992V42.6636H76.4581V45.9998C76.4581 47.4741 75.4514 48.3136 74.0415 48.3136Z" fill="#FF521C"/>
<path d="M66.6089 48.2109V42.6636H67.2986V47.5926H70.7141L70.7062 48.2109H66.6089Z" fill="#FF521C"/>
<path d="M60.9365 48.2109V42.6636H63.4968C64.6455 42.6636 65.4623 43.3925 65.4623 44.4462C65.4623 45.5008 64.6455 46.2611 63.489 46.2611H61.6262V48.2109H60.9365ZM61.6262 45.6985H63.4489C64.2257 45.6985 64.7805 45.1594 64.7805 44.4706C64.7805 43.7809 64.2257 43.274 63.4489 43.274H61.6262V45.6985Z" fill="#FF521C"/>
<path d="M52.2617 48.2109V42.6636H54.4883C56.0654 42.6636 57.2463 43.8209 57.2463 45.4294C57.2463 47.0457 56.0654 48.2109 54.4883 48.2109H52.2617ZM52.9513 47.5926H54.4491C55.6535 47.5926 56.5487 46.713 56.5487 45.4372C56.5487 44.1536 55.6535 43.274 54.4413 43.274H52.9513V47.5926Z" fill="#FF521C"/>
<path d="M46.9844 48.2109V42.6636H47.6738V47.5926H51.0894L51.0815 48.2109H46.9844Z" fill="#FF521C"/>
<path d="M42.867 48.3133C41.2503 48.3133 40.0537 47.1011 40.0537 45.4448C40.0537 43.7884 41.2503 42.5684 42.8749 42.5684C44.4995 42.5684 45.6882 43.7884 45.6882 45.4369C45.6882 47.0933 44.4916 48.3133 42.867 48.3133ZM42.8749 47.6715C44.1191 47.6715 45.0146 46.7284 45.0146 45.4448C45.0146 44.1611 44.1112 43.2102 42.867 43.2102C41.6307 43.2102 40.7352 44.1533 40.7352 45.4448C40.7352 46.7284 41.6307 47.6715 42.8749 47.6715Z" fill="#FF521C"/>
<path d="M37.5413 48.3133C35.6869 48.3133 34.4507 47.1403 34.4507 45.4683C34.4507 43.8041 35.6869 42.5684 37.4938 42.5684C38.0406 42.5684 38.6508 42.7025 39.0787 42.9324L38.9836 43.6142C38.5953 43.353 38.0723 43.1945 37.5096 43.1945C36.1387 43.1945 35.1401 44.1611 35.1401 45.4526C35.1401 46.7841 36.1149 47.6715 37.5651 47.6715C38.2625 47.6715 38.8965 47.4495 39.3482 47.0855V47.7908C38.8727 48.1157 38.2149 48.3133 37.5413 48.3133Z" fill="#FF521C"/>
<path d="M127.236 48.2109L129.812 42.6636H130.144L132.72 48.2109H131.983L131.555 47.2834H128.393L127.973 48.2109H127.236ZM128.662 46.713H131.293L130.002 43.8836H129.955L128.662 46.713Z" fill="#FF521C"/>
<path d="M125.944 48.2109L122.243 44.1458H122.179V48.2109H121.498V42.6636H121.807L125.508 46.7287H125.564V42.6636H126.245V48.2109H125.944Z" fill="#FF521C"/>
<path d="M117.593 48.3136C116.182 48.3136 115.175 47.4663 115.175 46.0076V42.6636H115.873V45.9841C115.873 47.0701 116.586 47.6875 117.593 47.6875C118.599 47.6875 119.32 47.0779 119.32 45.992V42.6636H120.009V45.9998C120.009 47.4741 119.003 48.3136 117.593 48.3136Z" fill="#FF521C"/>
<path d="M108.873 48.2109L111.449 42.6636H111.781L114.356 48.2109H113.62L113.192 47.2834H110.03L109.609 48.2109H108.873ZM110.299 46.713H112.93L111.638 43.8836H111.59L110.299 46.713Z" fill="#FF521C"/>
<path d="M106.03 48.3133C105.316 48.3133 104.278 48.0678 103.684 47.7038L103.874 47.1325C104.516 47.5453 105.356 47.7429 106.014 47.7429C106.838 47.7429 107.425 47.3389 107.425 46.7528C107.425 46.2372 107.076 45.9438 105.91 45.706C104.595 45.4369 103.929 44.9928 103.929 44.1054C103.929 43.2337 104.722 42.5684 105.982 42.5684C106.712 42.5684 107.353 42.7504 107.773 42.9402V43.5585C107.377 43.353 106.782 43.1466 106.022 43.1466C105.174 43.1466 104.642 43.5829 104.642 44.0897C104.642 44.6044 105.023 44.8822 106.132 45.1121C107.559 45.4056 108.129 45.8724 108.129 46.7049C108.129 47.6402 107.353 48.3133 106.03 48.3133Z" fill="#FF521C"/>
<path fill-rule="evenodd" clip-rule="evenodd" d="M99.5483 48.2115V42.7261H100.158V48.2115H99.5483Z" fill="#FF521C"/>
</svg>
